<?xml version="1.0" encoding="utf-8"?>
<!-- Generator: Adobe Illustrator 21.0.0, SVG Export Plug-In . SVG Version: 6.00 Build 0)  -->
<svg version="1.1" id="Layer_1" xmlns="http://www.w3.org/2000/svg" xmlns:xlink="http://www.w3.org/1999/xlink" x="0px" y="0px"
	 viewBox="0 0 134 32" style="enable-background:new 0 0 134 32;" xml:space="preserve">
<style type="text/css">
	.st0{fill:#F8F8F8;}
	.st1{fill:#F8F8FC;}
	.st2{font-family:'ProductSans-Regular';}
	.st3{font-size:13px;}
</style>
<path class="st0" d="M42.9,15.1c0,2.2-2.3,3.5-4.2,2.3c-4.4-2.7-8.9-5.3-13.3-8c-1.6-0.9-2-2.6-1.1-4c0.9-1.5,2.3-1.8,4-0.8
	c4.3,2.6,8.5,5.1,12.8,7.7C42.2,13,42.9,13.8,42.9,15.1z"/>
<path class="st0" d="M20.9,24.2c-0.7,1-1.1,1.9-1.8,2.5c-0.8,0.7-1.8,0.5-2.7,0c-4.5-2.7-9-5.4-13.4-8.1c-1.9-1.1-2.1-3.3-0.5-4.7
	c0.9-0.8,2-0.9,3-0.3c4.5,2.8,9,5.4,13.5,8.2C19.8,22.3,20.2,23.3,20.9,24.2z"/>
<path class="st0" d="M3.9,12c3.5-2.2,7.2-4.5,10.8-6.7C15.1,5,15.6,4.7,16,4.4c1.4-0.9,2.8-0.7,3.7,0.6c0.9,1.2,0.8,3.1-0.4,3.9
	c-3.1,2.1-6.3,4-9.5,6c-0.3,0.2-0.8,0-1.2-0.2C7.1,13.8,5.5,12.9,3.9,12z"/>
<path class="st0" d="M40,19.1c-1.4,0.9-2.9,1.8-4.4,2.8c-2.5,1.6-5,3.1-7.5,4.7c-1.4,0.9-2.8,0.7-3.7-0.5c-1-1.3-0.9-3,0.4-3.9
	c3-2,6.2-3.9,9.3-5.8c0.3-0.2,0.9,0,1.3,0.2C37,17.3,38.4,18.2,40,19.1z"/>
<text transform="matrix(1 0 0 1 52.833 12.0002)" class="st1 st2 st3">GDG DevFest</text>
<text transform="matrix(1 0 0 1 52.833 27.6002)" class="st1 st2 st3">Abuja 2019</text>
<text transform="matrix(1 0 0 1 -273 -119)" style="font-family:'MyriadPro-Regular'; font-size:12px;">Lorem ipsum</text>
</svg>
